PathFileType	4	(X/Y/Z)	OpenSim_Sub08_EMGStiffKnee_Gyro.trc
DataRate	CameraRate	NumFrames	NumMarkers	Units	OrigDataRate	OrigDataStartFrame	OrigNumFrames
100	100	17	8	m	100	4726	6301
Frame#	Time	torso_imu_offset_imu	pelvis_imu_offset_imu	tibia_r_imu_offset_imu	femur_r_imu_offset_imu	tibia_l_imu_offset_imu	femur_l_imu_offset_imu	toes_r_imu_offset_imu	toes_l_imu_offset_imu
				X1	Y1	Z1	X2	Y2	Z2	X3	Y3	Z3	X4	Y4	Z4	X5	Y5	Z5	X6	Y6	Z6	X7	Y7	Z7	X8		Y8	Z8	

4726	47.25000000	0.20225352	0.59055535	-0.05435093	-0.76858888	-0.10222820	-0.36711182	-0.64869027	0.09419491	-1.32243087	-1.12753495	0.68240730	-0.88048310	1.41691267	-1.13040673	1.79022622	0.32076709	-1.04487983	-0.32311496	-0.27274308	-0.72921504	-0.36139533	0.91879841	-2.49497497	0.10523717
4727	47.26000000	0.16183224	0.62632037	-0.01999206	-0.67674929	-0.00837066	-0.31843203	-0.63449985	0.09263285	-1.39098709	-1.03841809	0.74455905	-0.92136952	2.15810978	-1.10456950	0.75846217	-0.34115705	-1.19100209	-0.16490556	-0.15377159	-0.94152790	-0.36294722	2.39274943	-3.24155691	0.17954468
4728	47.27000000	0.12871304	0.68557301	0.00487978	-0.55541223	0.03748579	-0.29246988	-0.53582397	0.10244249	-1.41204558	-0.99571022	0.75639642	-0.93120499	1.85464361	-1.13726037	0.04716481	-0.80216794	-0.95581640	0.23905511	-0.13673216	-1.19305887	-0.30911093	0.43610306	-4.08895346	0.45775340
4729	47.28000000	0.11377717	0.73067719	0.00682147	-0.39721143	0.13096228	-0.29579286	-0.56086255	0.12526492	-1.42579828	-0.92242583	0.75351013	-0.90909305	0.13595806	-0.99595720	0.68801709	-0.78438295	-0.46995546	0.77560483	-0.16260278	-1.48852390	-0.22293240	0.43008344	-3.84500917	0.12691192
4730	47.29000000	0.10649287	0.72069946	0.00819735	-0.19447350	0.31969196	-0.31685388	-0.59810084	0.13681380	-1.50002685	-0.79238875	0.72072277	-0.87041680	-1.65853994	-0.77178120	1.44750308	-0.81734272	0.10293614	1.17748411	-0.13310855	-1.86650948	-0.07146976	-0.02211233	-3.63565319	0.27421879
4731	47.30000000	0.12051773	0.68529901	0.01535413	0.09337315	0.45341054	-0.36256325	-0.62357438	0.17079898	-1.59612279	-0.62855421	0.68718812	-0.79651378	-2.79132454	-0.67421372	1.49346918	-0.86770754	0.71883930	1.17422533	-0.07115577	-2.31922128	0.10947293	0.43450031	-3.35655056	0.39540551
4732	47.31000000	0.15521455	0.65796652	0.02620699	0.46840827	0.31410831	-0.37381184	-0.81865963	0.21983685	-1.65985559	-0.52117990	0.68186668	-0.70699514	-3.45718643	-0.21020409	1.33342690	-0.67901645	0.86028894	0.60939295	-0.21406065	-2.80668045	0.27654324	0.82572486	-2.56479037	0.20740448
4733	47.32000000	0.22465641	0.66411469	0.05288947	0.80984313	-0.06837110	-0.40352210	-1.03408751	0.22945540	-1.71072006	-0.49805533	0.69538156	-0.62065127	-3.50372212	-0.03297027	1.35624789	-0.35787743	0.10500299	-0.16409265	-0.23997226	-3.25341884	0.27520764	0.15213100	-2.21175302	0.07110539
4734	47.33000000	0.29358634	0.65357016	0.08992161	0.97578058	-0.42655464	-0.44692946	-0.98786571	0.17936339	-1.83027382	-0.48154562	0.73835835	-0.49292473	-2.24794443	-0.48246353	1.55081175	0.02619468	-0.78508270	-0.76388928	-0.03845128	-3.64488420	0.14417000	0.25982255	-1.90432143	-0.05511756
4735	47.34000000	0.33174267	0.61943527	0.09978743	0.90911941	-0.61097761	-0.37297212	-0.98846704	0.14306595	-1.97978747	-0.51188862	0.75745463	-0.30217695	-0.02231483	-1.07521839	1.68653791	0.29858942	-1.16147796	-1.01694787	0.04604633	-3.92079826	-0.01988643	0.56223651	-1.71148291	-0.13835912
4736	47.35000000	0.35512594	0.56987960	0.13364576	0.63867716	-0.63747011	-0.24058142	-1.13368926	0.12726871	-2.09572885	-0.53528674	0.75078578	-0.09041294	1.52560889	-1.05189330	1.42607920	0.12886658	-1.05044146	-0.60150380	0.27433714	-4.09823447	-0.20791571	0.39775943	-0.87543511	-0.05051174
4737	47.36000000	0.35081032	0.51044074	0.18568260	0.30666210	-0.52726913	-0.14263345	-0.98813064	0.07051592	-2.16190435	-0.48357923	0.75620458	0.08347100	1.78929352	-1.05035877	1.28221927	0.11010986	-0.57278650	0.37710344	0.26242479	-4.27436003	-0.51004618	-2.23388247	-0.58321392	0.23627866
4738	47.37000000	0.31816167	0.46059339	0.22206851	0.09122403	-0.41757307	-0.10124525	-0.55922636	-0.01098453	-2.09160550	-0.40494117	0.72057121	0.24274818	1.62482647	-1.09675306	1.50990881	0.92379301	-0.32358739	1.24992962	0.21476868	-4.36616070	-1.01767667	-0.46767242	-0.71892514	0.15845170
4739	47.38000000	0.27621588	0.45122684	0.24611798	-0.05141048	-0.35976487	-0.07713993	0.05777093	-0.06752695	-1.88148514	-0.48565768	0.60464101	0.36656478	1.07928113	-0.75712489	1.31827675	1.93796870	-0.51419877	1.62931548	0.44414129	-4.05845149	-1.31546027	0.40723859	-0.49401901	0.20718886
4740	47.39000000	0.21678415	0.45089093	0.24808723	-0.12842533	-0.26586971	-0.04365609	0.69729658	-0.16464841	-1.70492843	-0.58658605	0.40044874	0.39918483	-0.11046572	-0.61581017	0.92143829	2.30396580	-0.79556225	1.64077945	0.31843796	-3.88362402	-1.55162383	-0.69250646	-0.48624589	0.31477640
4741	47.40000000	0.14526517	0.45460784	0.23775908	-0.20358513	-0.16644292	-0.05527054	1.18523199	-0.28486574	-1.66910594	-0.49895342	0.14382066	0.40995580	-0.86167396	-0.53954335	0.86825355	1.93403109	-0.79996960	1.42887725	0.53985370	-3.38132362	-1.75345803	-0.28505791	-0.40556505	0.24930916
4742	47.41000000	0.07134080	0.45065982	0.21720478	-0.21987458	-0.07277775	-0.06583988	1.46759346	-0.21267586	-1.70317492	-0.26957476	-0.04319633	0.42467220	-1.05526440	-0.51956105	0.92761712	1.15985223	-0.69022846	0.99263842	0.48655470	-2.68164604	-1.79388112	-0.00860174	-0.29228958	0.13304456
